<?xml version="1.0" encoding="UTF-8"?>
<svg width="512" height="512" viewBox="0 0 512 512" xmlns="http://www.w3.org/2000/svg">
  <!-- Book base -->
  <rect x="20" y="20" width="472" height="472" rx="24" fill="#8B4513"/>
  
  <!-- Book spine -->
  <rect x="20" y="20" width="50" height="472" rx="24" fill="#654321"/>
  
  <!-- Open page -->
  <rect x="70" y="50" width="400" height="412" rx="16" fill="#FFFEF7"/>
  
  <!-- Simple recipe lines -->
  <rect x="100" y="120" width="120" height="8" rx="4" fill="#E0E0E0"/>
  <rect x="100" y="160" width="320" height="4" rx="2" fill="#F0F0F0"/>
  <rect x="100" y="185" width="300" height="4" rx="2" fill="#F0F0F0"/>
  <rect x="100" y="210" width="280" height="4" rx="2" fill="#F0F0F0"/>
  
  <!-- Chef hat - simple geometric -->
  <ellipse cx="340" cy="300" rx="50" ry="30" fill="#FFFFFF" stroke="#E8E8E8" stroke-width="4"/>
  <rect x="290" y="300" width="100" height="40" fill="#FFFFFF" stroke="#E8E8E8" stroke-width="4"/>
  
  <!-- Simple utensils -->
  <circle cx="160" cy="380" r="8" fill="#D0D0D0"/>
  <rect x="154" y="390" width="12" height="60" rx="6" fill="#D0D0D0"/>
  
  <ellipse cx="220" cy="380" rx="12" ry="8" fill="#D0D0D0"/>
  <rect x="214" y="390" width="12" height="60" rx="6" fill="#D0D0D0"/>
  
  <!-- Simple bookmark -->
  <rect x="450" y="20" width="24" height="100" fill="#FF6B6B"/>
  <path d="M 450 120 L 462 105 L 474 120 Z" fill="#FF6B6B"/>
</svg>
